<?xml version="1.0" encoding="UTF-8" standalone="no"?>
<!DOCTYPE svg PUBLIC "-//W3C//DTD SVG 1.1//EN" "http://www.w3.org/Graphics/SVG/1.1/DTD/svg11.dtd">
<svg xmlns="http://www.w3.org/2000/svg" version="1.1" viewBox="0.00 0.00 1215.00 1221.00">
<path fill="#ffd966" d="
  M 1.34 165.17
  L 846.50 1.27
  Q 848.57 0.87 846.71 1.89
  L 53.57 434.22
  A 0.32 0.32 0.0 0 1 53.10 434.00
  L 1.01 165.65
  A 0.42 0.42 0.0 0 1 1.34 165.17
  Z"
/>
<path fill="#a9d18e" d="
  M 1214.57 219.07
  L 846.01 948.73
  Q 845.07 950.59 845.19 948.51
  L 897.08 58.95
  A 0.50 0.50 0.0 0 1 897.80 58.54
  L 1214.37 218.39
  A 0.52 0.49 -63.2 0 1 1214.57 219.07
  Z"
/>
<path fill="#002060" d="
  M 541.21 662.67
  C 448.31 640.21 386.09 553.84 393.73 458.76
  C 402.82 345.49 509.27 265.82 619.90 285.00
  C 700.96 299.04 766.16 364.89 777.81 446.66
  C 784.51 493.72 774.61 541.54 748.08 581.13
  C 702.87 648.59 621.11 681.99 541.21 662.67
  Z"
/>
<path fill="#f08462" d="
  M 39.07 484.46
  L 786.99 1036.25
  A 0.41 0.41 0.0 0 1 786.96 1036.93
  L 483.33 1220.16
  Q 482.80 1220.48 482.48 1219.95
  L 38.82 484.68
  A 0.17 0.17 0.0 0 1 39.07 484.46
  Z"
/>
</svg>
